<svg width="18" height="18" viewBox="0 0 18 18" fill="none" xmlns="http://www.w3.org/2000/svg">
<path fill-rule="evenodd" clip-rule="evenodd" d="M0 8.77764C0 6.44966 0.924784 4.21704 2.57091 2.57091C4.21704 0.924784 6.44966 0 8.77764 0C11.1056 0 13.3382 0.924784 14.9844 2.57091C16.6305 4.21704 17.5553 6.44966 17.5553 8.77764C17.5553 11.1056 16.6305 13.3382 14.9844 14.9844C13.3382 16.6305 11.1056 17.5553 8.77764 17.5553C6.44966 17.5553 4.21704 16.6305 2.57091 14.9844C0.924784 13.3382 0 11.1056 0 8.77764ZM8.77764 1.25906C6.78359 1.25906 4.87121 2.05119 3.4612 3.4612C2.05119 4.87121 1.25906 6.78359 1.25906 8.77764C1.25906 10.7717 2.05119 12.6841 3.4612 14.0941C4.87121 15.5041 6.78359 16.2962 8.77764 16.2962C10.7717 16.2962 12.6841 15.5041 14.0941 14.0941C15.5041 12.6841 16.2962 10.7717 16.2962 8.77764C16.2962 6.78359 15.5041 4.87121 14.0941 3.4612C12.6841 2.05119 10.7717 1.25906 8.77764 1.25906ZM8.28064 10.7656C8.20775 10.9339 7.22966 14.6886 7.22966 14.6886C7.20703 14.7727 7.16807 14.8514 7.115 14.9204C7.06192 14.9895 6.99578 15.0473 6.92034 15.0908C6.76798 15.1785 6.587 15.2021 6.41723 15.1564C6.33317 15.1338 6.25438 15.0948 6.18538 15.0418C6.11637 14.9887 6.0585 14.9226 6.01505 14.8471C5.92731 14.6948 5.9037 14.5138 5.94939 14.344C5.94939 14.344 7.11568 10.5973 7.11568 9.79814V7.85123L4.52069 7.15544C4.43534 7.13417 4.35509 7.09612 4.2846 7.04351C4.21411 6.99091 4.1548 6.92479 4.11012 6.84903C4.06545 6.77326 4.0363 6.68936 4.02439 6.60222C4.01247 6.51507 4.01802 6.42643 4.04072 6.34145C4.06342 6.25648 4.1028 6.17687 4.15658 6.10727C4.21036 6.03767 4.27746 5.97947 4.35396 5.93607C4.43046 5.89267 4.51484 5.86494 4.60217 5.85448C4.6895 5.84402 4.77804 5.85106 4.86262 5.87517C4.86262 5.87517 7.05471 6.62133 7.91087 6.62133H9.64573C10.5006 6.62133 12.6913 5.87517 12.6913 5.87517C12.8611 5.82948 13.0421 5.8531 13.1944 5.94083C13.3468 6.02857 13.4581 6.17324 13.5038 6.34301C13.5494 6.51279 13.5258 6.69376 13.4381 6.84612C13.3504 6.99848 13.2057 7.10974 13.0359 7.15544L10.4303 7.85388V9.79814C10.4303 10.5973 11.5966 14.34 11.5966 14.34C11.6421 14.5098 11.6183 14.6907 11.5305 14.8429C11.4426 14.9952 11.2979 15.1063 11.1281 15.1518C10.9583 15.1973 10.7774 15.1735 10.6252 15.0857C10.473 14.9978 10.3619 14.8531 10.3163 14.6833C10.3163 14.6833 9.33427 10.9339 9.26668 10.7656C9.20042 10.5973 8.97644 10.5973 8.97644 10.5973H8.56956C8.56956 10.5973 8.34028 10.5973 8.28064 10.7656ZM8.77764 5.62336C9.17307 5.62336 9.55231 5.46627 9.83193 5.18666C10.1115 4.90704 10.2686 4.5278 10.2686 4.13237C10.2686 3.73693 10.1115 3.35769 9.83193 3.07808C9.55231 2.79846 9.17307 2.64138 8.77764 2.64138C8.3822 2.64138 8.00296 2.79846 7.72335 3.07808C7.44373 3.35769 7.28664 3.73693 7.28664 4.13237C7.28664 4.5278 7.44373 4.90704 7.72335 5.18666C8.00296 5.46627 8.3822 5.62336 8.77764 5.62336Z" fill="#2E3240"/>
</svg>
