<svg width="44" height="29" viewBox="0 0 44 29" fill="none" xmlns="http://www.w3.org/2000/svg">
<path d="M29.677 23.6554C27.4812 23.6554 25.3753 22.7831 23.8226 21.2304C22.2699 19.6777 21.3976 17.5718 21.3976 15.376C21.3976 13.1801 22.2699 11.0742 23.8226 9.52152C25.3753 7.96882 27.4812 7.09652 29.677 7.09652C31.8729 7.09652 33.9788 7.96882 35.5315 9.52152C37.0842 11.0742 37.9565 13.1801 37.9565 15.376C37.9565 17.5718 37.0842 19.6777 35.5315 21.2304C33.9788 22.7831 31.8729 23.6554 29.677 23.6554ZM37.992 8.74058L39.6715 7.06103C39.1393 6.45782 38.607 5.91374 38.0038 5.39331L36.3243 7.09652C34.491 5.60622 32.1845 4.73096 29.677 4.73096C26.8538 4.73096 24.1462 5.85248 22.1499 7.84881C20.1535 9.84514 19.032 12.5527 19.032 15.376C19.032 18.1992 20.1535 20.9068 22.1499 22.9031C24.1462 24.8995 26.8538 26.021 29.677 26.021C35.5909 26.021 40.3221 21.2544 40.3221 15.376C40.3221 12.8685 39.4468 10.5621 37.992 8.74058ZM28.4943 16.5588H30.8598V9.46208H28.4943M33.2254 1.18262H26.1287V3.54818H33.2254V1.18262Z" fill="#2E3240"/>
<line x1="17.2041" y1="3.58105" x2="-1.15193e-05" y2="3.58105" stroke="#2E3240" stroke-width="2"/>
<line x1="17.2041" y1="7.02148" x2="6.02141" y2="7.02148" stroke="#2E3240" stroke-width="2"/>
<line x1="17.2041" y1="10.4629" x2="10.3224" y2="10.4629" stroke="#2E3240" stroke-width="2"/>
</svg>
