<svg width="18" height="18" viewBox="0 0 18 18" fill="none" xmlns="http://www.w3.org/2000/svg">
<g clip-path="url(#clip0_5511_752_blue)">
<path d="M7.41636 11.8091C7.76744 12.1556 8.22091 12.3254 8.77678 12.3185C9.33265 12.3115 9.74224 12.1129 10.0056 11.7225L14.9206 4.4463L7.54802 9.2971C7.15306 9.55696 6.94475 9.95398 6.9231 10.4881C6.90145 11.0223 7.06587 11.4626 7.41636 11.8091ZM8.77678 1.84766C9.63985 1.84766 10.4701 1.96662 11.2677 2.20454C12.0652 2.44246 12.8147 2.79991 13.5163 3.27691L11.8487 4.31637C11.366 4.07094 10.8651 3.88701 10.3461 3.76459C9.82709 3.64216 9.30398 3.58066 8.77678 3.58008C6.83124 3.58008 5.17445 4.25515 3.80642 5.60529C2.4384 6.95543 1.75467 8.59027 1.75526 10.5098C1.75526 11.1161 1.83952 11.7153 2.00803 12.3072C2.17655 12.8991 2.41411 13.4549 2.72072 13.9747H14.8328C15.1693 13.4261 15.4145 12.8558 15.5684 12.2639C15.7222 11.672 15.7989 11.0584 15.7983 10.4232C15.7983 9.90345 15.736 9.39816 15.6114 8.9073C15.4867 8.41645 15.3004 7.94003 15.0523 7.47805L16.1055 5.83224C16.5443 6.51078 16.8919 7.23262 17.1482 7.99778C17.4045 8.76293 17.5396 9.55696 17.5537 10.3799C17.5683 11.2028 17.4732 11.9896 17.2684 12.7403C17.0636 13.491 16.7638 14.2056 16.3688 14.8842C16.2079 15.144 15.9885 15.3462 15.7105 15.4905C15.4326 15.6349 15.14 15.7071 14.8328 15.7071H2.72072C2.41353 15.7071 2.12096 15.6349 1.84303 15.4905C1.56509 15.3462 1.34567 15.144 1.18476 14.8842C0.804428 14.2345 0.511864 13.5453 0.30707 12.8165C0.102275 12.0878 -0.00012207 11.3188 -0.00012207 10.5098C-0.00012207 9.31154 0.230418 8.18921 0.691498 7.14282C1.15258 6.09644 1.78159 5.17969 2.57853 4.39259C3.37548 3.60549 4.30758 2.98471 5.37486 2.53023C6.44213 2.07576 7.5761 1.84823 8.77678 1.84766Z" fill="#2563EB"/>
</g>
<defs>
<clipPath id="clip0_5511_752_blue">
<rect width="17.5553" height="17.5553" fill="white"/>
</clipPath>
</defs>
</svg>
