<svg width="19" height="19" viewBox="0 0 19 19" fill="none" xmlns="http://www.w3.org/2000/svg">
<path d="M6.42129 18.5879L4.81597 15.7555L1.7743 15.0474L2.07002 11.7724L0 9.29397L2.07002 6.81558L1.7743 3.54056L4.81597 2.83245L6.42129 0L9.29397 1.28345L12.1667 0L13.772 2.83245L16.8136 3.54056L16.5179 6.81558L18.5879 9.29397L16.5179 11.7724L16.8136 15.0474L13.772 15.7555L12.1667 18.5879L9.29397 17.3045L6.42129 18.5879ZM7.13946 16.3308L9.29397 15.3572L11.4907 16.3308L12.6736 14.2065L14.9971 13.6312L14.7859 11.1528L16.3489 9.29397L14.7859 7.39092L14.9971 4.91253L12.6736 4.38144L11.4485 2.25711L9.29397 3.23076L7.09721 2.25711L5.91434 4.38144L3.59085 4.91253L3.80208 7.39092L2.239 9.29397L3.80208 11.1528L3.59085 13.6754L5.91434 14.2065L7.13946 16.3308ZM8.40682 12.4362L13.1805 7.43518L11.9977 6.15172L8.40682 9.91357L6.59027 8.05477L5.4074 9.29397L8.40682 12.4362Z" fill="#2E3240"/>
</svg>
