<svg width="18" height="19" viewBox="0 0 18 19" fill="none" xmlns="http://www.w3.org/2000/svg">
<path d="M12.1467 3.37983C11.8323 3.6507 11.5297 3.92446 11.2083 4.17537C11.1538 4.21795 10.9847 4.1987 10.9265 4.14634C10.1573 3.45376 9.25765 2.99781 8.24419 2.78548C7.78751 2.68981 7.30181 2.65461 6.83578 2.68564C4.55813 2.83736 2.93557 3.9579 1.92727 5.94855C1.72041 6.35695 1.99434 6.98738 2.44109 7.10382C2.51095 7.12202 2.62893 7.05498 2.69157 6.99452C3.42816 6.2835 4.16483 5.57231 4.88609 4.84654C5.07687 4.65457 5.19592 4.67229 5.37613 4.85063C6.32507 5.7897 7.28959 6.7137 8.23369 7.65735C8.42104 7.84459 8.52443 7.85485 8.71472 7.66745C10.7071 5.70607 12.708 3.75286 14.7045 1.79556C14.7778 1.72371 14.8309 1.63206 14.9421 1.4854C14.7478 1.46671 14.632 1.44674 14.5162 1.44586C13.9979 1.44217 13.4796 1.43817 12.9615 1.44643C12.7494 1.44979 12.653 1.38548 12.6647 1.16248C12.6803 0.865786 12.6784 0.567248 12.6652 0.270313C12.6561 0.0659154 12.7414 -0.000557793 12.9411 3.51992e-06C14.4057 0.00417327 15.8703 0.00449402 17.3349 3.51992e-06C17.5455 -0.00063798 17.6053 0.092459 17.6048 0.281942C17.6009 1.7254 17.6004 3.16885 17.6054 4.61223C17.6061 4.81967 17.5361 4.91678 17.3136 4.90973C17.0098 4.90002 16.705 4.89914 16.4013 4.91005C16.1767 4.91806 16.1055 4.81799 16.1081 4.61263C16.1146 4.09486 16.1119 3.57685 16.1075 3.05908C16.1064 2.93302 16.0844 2.80713 16.072 2.68115C16.0423 2.6664 16.0126 2.65172 15.983 2.63697C13.4904 5.07315 10.9978 7.50924 8.47917 9.97084C7.37724 8.86562 6.29638 7.7814 5.18346 6.66511C4.69563 7.13894 4.26986 7.55214 3.8445 7.96575C3.46391 8.3359 3.07512 8.69842 2.70715 9.08028C2.53743 9.25645 2.42265 9.2332 2.26711 9.07362C2.03902 8.83955 1.79371 8.6216 1.55578 8.39676C1.52257 8.41183 1.48945 8.42691 1.45624 8.44198C1.49388 8.75039 1.4965 9.06761 1.5748 9.36574C2.03271 11.1097 3.06093 12.4188 4.74498 13.1837C5.69868 13.6169 6.70157 13.7741 7.76324 13.6339C9.82371 13.3617 11.2716 12.2834 12.1931 10.4979C12.7229 9.47119 12.762 8.36693 12.6586 7.24422C12.6443 7.08826 12.7241 6.88899 12.8284 6.76446C13.0899 6.45245 13.3904 6.17179 13.7274 5.82506C13.8244 6.0876 13.9196 6.28061 13.9672 6.48421C14.3808 8.25426 14.1752 9.95232 13.2784 11.547C13.1247 11.8203 13.1584 11.9524 13.3669 12.1527C14.5509 13.2907 15.7108 14.4528 16.9018 15.5836C17.5244 16.1749 17.5616 17.252 16.8216 17.932C16.1182 18.5784 15.1659 18.5955 14.474 17.9258C13.2667 16.7573 12.0591 15.5889 10.8621 14.4103C10.6856 14.2364 10.5529 14.2205 10.3365 14.3335C7.81375 15.6516 4.546 15.2503 2.41519 13.384C1.25947 12.3717 0.478279 11.1349 0.177544 9.65474C0.028406 8.92086 -0.0566159 8.13463 0.0431646 7.39987C0.33275 5.268 1.3845 3.55343 3.25664 2.36185C4.48877 1.57761 5.85019 1.20458 7.30632 1.25245C9.05719 1.31003 10.5983 1.9338 11.9009 3.09332C11.965 3.15017 12.0136 3.2233 12.1467 3.37983Z" fill="#2E3240"/>
</svg>
