<svg width="18" height="18" viewBox="0 0 18 18" fill="none" xmlns="http://www.w3.org/2000/svg">
<path fill-rule="evenodd" clip-rule="evenodd" d="M9.74587 1.15514C9.8566 1.19332 9.95264 1.26512 10.0206 1.36051C10.0886 1.45591 10.1251 1.57014 10.125 1.68726V7.87476H13.5C13.6055 7.87478 13.7089 7.90449 13.7984 7.9605C13.8878 8.0165 13.9597 8.09655 14.0058 8.19148C14.052 8.28641 14.0704 8.3924 14.0592 8.49733C14.0479 8.60227 14.0073 8.70192 13.9421 8.78489L7.75462 16.6599C7.68232 16.7518 7.58317 16.8189 7.47096 16.8519C7.35875 16.8848 7.23907 16.882 7.12855 16.8437C7.01804 16.8055 6.92219 16.7337 6.85434 16.6385C6.78649 16.5432 6.75002 16.4292 6.74999 16.3123V10.1248H3.37499C3.26945 10.1247 3.16605 10.095 3.07659 10.039C2.98714 9.98302 2.91525 9.90298 2.86913 9.80805C2.82302 9.71312 2.80454 9.60713 2.81581 9.50219C2.82708 9.39726 2.86764 9.29761 2.93287 9.21464L9.12037 1.33964C9.19254 1.24772 9.29155 1.18056 9.40365 1.14749C9.51575 1.11443 9.63536 1.1171 9.74587 1.15514Z" fill="#2E1401"/>
</svg>
