<svg width="20" height="20" viewBox="0 0 20 20" fill="none" xmlns="http://www.w3.org/2000/svg">
<path d="M1.29995 6.7002H18.1M1.29995 12.7002H18.1M0.699951 9.7002C0.699951 10.8821 0.932743 12.0524 1.38504 13.1443C1.83733 14.2363 2.50026 15.2284 3.33599 16.0642C4.17172 16.8999 5.16387 17.5628 6.2558 18.0151C7.34773 18.4674 8.51805 18.7002 9.69995 18.7002C10.8818 18.7002 12.0522 18.4674 13.1441 18.0151C14.236 17.5628 15.2282 16.8999 16.0639 16.0642C16.8996 15.2284 17.5626 14.2363 18.0149 13.1443C18.4672 12.0524 18.7 10.8821 18.7 9.7002C18.7 7.31325 17.7517 5.02406 16.0639 3.33623C14.3761 1.64841 12.0869 0.700195 9.69995 0.700195C7.313 0.700195 5.02382 1.64841 3.33599 3.33623C1.64816 5.02406 0.699951 7.31325 0.699951 9.7002Z" stroke="#404041" stroke-width="1.4" stroke-linecap="round" stroke-linejoin="round"/>
<path d="M9.19999 0.700195C7.51533 3.39981 6.62219 6.51806 6.62219 9.7002C6.62219 12.8823 7.51533 16.0006 9.19999 18.7002M10.2 0.700195C11.8846 3.39981 12.7778 6.51806 12.7778 9.7002C12.7778 12.8823 11.8846 16.0006 10.2 18.7002" stroke="#404041" stroke-width="1.4" stroke-linecap="round" stroke-linejoin="round"/>
</svg>
