<svg width="140" height="53" viewBox="0 0 140 53" fill="none" xmlns="http://www.w3.org/2000/svg">
<path d="M60.6117 28.4128C60.6117 28.8876 60.5821 29.3821 60.5227 29.8965H49.0388C49.1179 30.9252 49.4443 31.7165 50.018 32.2704C50.6115 32.8046 51.3336 33.0716 52.1842 33.0716C53.4503 33.0716 54.3307 32.5375 54.8253 31.4692H60.226C59.949 32.5573 59.4446 33.5365 58.7126 34.407C58.0004 35.2774 57.1003 35.9599 56.0122 36.4545C54.9242 36.9491 53.7075 37.1964 52.3623 37.1964C50.7401 37.1964 49.2959 36.8502 48.0298 36.1578C46.7637 35.4654 45.7746 34.4762 45.0624 33.1903C44.3502 31.9044 43.9941 30.401 43.9941 28.6798C43.9941 26.9587 44.3403 25.4552 45.0327 24.1694C45.7449 22.8835 46.7341 21.8943 48.0002 21.2019C49.2663 20.5095 50.7203 20.1633 52.3623 20.1633C53.9647 20.1633 55.3891 20.4996 56.6354 21.1723C57.8817 21.8449 58.8511 22.8043 59.5435 24.0507C60.2556 25.297 60.6117 26.751 60.6117 28.4128ZM55.4187 27.0774C55.4187 26.207 55.122 25.5146 54.5285 25.0002C53.935 24.4859 53.1932 24.2287 52.3029 24.2287C51.4523 24.2287 50.7302 24.476 50.1367 24.9706C49.563 25.4651 49.2069 26.1674 49.0684 27.0774H55.4187Z" fill="#404041"/>
<path d="M67.7695 22.745C68.2443 21.9735 68.9268 21.3503 69.817 20.8755C70.7073 20.4007 71.7261 20.1633 72.8735 20.1633C74.2385 20.1633 75.4749 20.5095 76.5828 21.2019C77.6906 21.8943 78.5611 22.8835 79.1941 24.1694C79.8469 25.4552 80.1734 26.9488 80.1734 28.6502C80.1734 30.3515 79.8469 31.855 79.1941 33.1607C78.5611 34.4465 77.6906 35.4456 76.5828 36.1578C75.4749 36.8502 74.2385 37.1964 72.8735 37.1964C71.7063 37.1964 70.6875 36.9689 69.817 36.5139C68.9466 36.0391 68.2641 35.4159 67.7695 34.6444V36.959H62.6952V15H67.7695V22.745ZM75.01 28.6502C75.01 27.3841 74.6539 26.3949 73.9418 25.6827C73.2494 24.9508 72.3888 24.5848 71.3601 24.5848C70.3512 24.5848 69.4906 24.9508 68.7784 25.6827C68.086 26.4147 67.7398 27.4137 67.7398 28.6798C67.7398 29.9459 68.086 30.945 68.7784 31.6769C69.4906 32.4089 70.3512 32.7749 71.3601 32.7749C72.369 32.7749 73.2296 32.4089 73.9418 31.6769C74.6539 30.9252 75.01 29.9163 75.01 28.6502Z" fill="#404041"/>
<path d="M112.137 28.4128C112.137 28.8876 112.107 29.3821 112.048 29.8965H100.564C100.643 30.9252 100.969 31.7165 101.543 32.2704C102.136 32.8046 102.858 33.0716 103.709 33.0716C104.975 33.0716 105.856 32.5375 106.35 31.4692H111.751C111.474 32.5573 110.969 33.5365 110.237 34.407C109.525 35.2774 108.625 35.9599 107.537 36.4545C106.449 36.9491 105.232 37.1964 103.887 37.1964C102.265 37.1964 100.821 36.8502 99.5547 36.1578C98.2886 35.4654 97.2995 34.4762 96.5873 33.1903C95.8751 31.9044 95.519 30.4009 95.519 28.6798C95.519 26.9587 95.8652 25.4552 96.5576 24.1693C97.2698 22.8835 98.2589 21.8943 99.525 21.2019C100.791 20.5095 102.245 20.1633 103.887 20.1633C105.49 20.1633 106.914 20.4996 108.16 21.1722C109.407 21.8449 110.376 22.8043 111.068 24.0506C111.781 25.297 112.137 26.751 112.137 28.4128ZM106.944 27.0774C106.944 26.207 106.647 25.5146 106.053 25.0002C105.46 24.4859 104.718 24.2287 103.828 24.2287C102.977 24.2287 102.255 24.476 101.662 24.9706C101.088 25.4651 100.732 26.1674 100.593 27.0774H106.944Z" fill="#404041"/>
<path d="M120.956 37.1964C119.512 37.1964 118.226 36.9491 117.098 36.4545C115.971 35.9599 115.081 35.2873 114.428 34.4366C113.775 33.5662 113.409 32.5968 113.33 31.5286H118.345C118.404 32.1023 118.671 32.5672 119.146 32.9233C119.621 33.2794 120.204 33.4574 120.897 33.4574C121.53 33.4574 122.015 33.3387 122.351 33.1013C122.707 32.8441 122.885 32.5177 122.885 32.1221C122.885 31.6473 122.638 31.3011 122.143 31.0835C121.649 30.8461 120.847 30.5889 119.739 30.3119C118.553 30.035 117.563 29.7481 116.772 29.4514C115.981 29.1348 115.298 28.6502 114.725 27.9973C114.151 27.3247 113.864 26.4246 113.864 25.297C113.864 24.3474 114.121 23.4868 114.635 22.7153C115.17 21.924 115.941 21.3008 116.95 20.8458C117.979 20.3908 119.195 20.1633 120.6 20.1633C122.677 20.1633 124.309 20.6777 125.496 21.7064C126.703 22.7351 127.395 24.1001 127.573 25.8014H122.885C122.806 25.2277 122.549 24.7727 122.113 24.4364C121.698 24.1001 121.144 23.932 120.452 23.932C119.858 23.932 119.403 24.0506 119.087 24.288C118.77 24.5057 118.612 24.8123 118.612 25.2079C118.612 25.6827 118.859 26.0388 119.354 26.2762C119.868 26.5136 120.659 26.751 121.728 26.9884C122.954 27.3049 123.953 27.6215 124.725 27.938C125.496 28.2347 126.169 28.7293 126.743 29.4217C127.336 30.0943 127.643 31.0043 127.663 32.1517C127.663 33.1211 127.386 33.9915 126.832 34.7631C126.297 35.5148 125.516 36.1083 124.487 36.5435C123.478 36.9787 122.301 37.1964 120.956 37.1964Z" fill="#404041"/>
<path d="M97.4491 16.1274L90.2383 30.0744V36.9588H85.164V30.0744L77.9531 16.1274H83.7099L87.7456 24.8517L91.7517 16.1274H97.4491Z" fill="#404041"/>
<path d="M44.6543 15.0166H38.683L32.1051 36.6639H38.0765L44.6543 15.0166Z" fill="#2684FF"/>
<path d="M31.498 15.0166H25.5267L18.9622 36.6639H24.9336L31.498 15.0166Z" fill="#2684FF"/>
<path d="M25.2234 35.6705L24.9097 36.7163L21.877 26.9907L22.243 25.8403L25.2234 35.6705Z" fill="#115ABE"/>
<path d="M38.4011 35.6178L38.0874 36.6636L35.0547 26.8857L35.4207 25.7354L38.4011 35.6178Z" fill="#115ABE"/>
<path d="M12.3613 15.0166H18.3422L24.9305 36.6639H18.9497L12.3613 15.0166Z" fill="#0B66E4"/>
<path d="M25.5176 15.0166H31.4984L38.0868 36.6639H32.1059L25.5176 15.0166Z" fill="#0B66E4"/>
</svg>
